<svg width="512" height="512" viewBox="0 0 512 512" fill="none" xmlns="http://www.w3.org/2000/svg">
<path d="M412 24H100C53.6081 24 16 61.6081 16 108V404C16 450.392 53.6081 488 100 488H412C458.392 488 496 450.392 496 404V108C496 61.6081 458.392 24 412 24Z" fill="#470137"/>
<path d="M262.74 155.28L203.7 256.72L267.32 364.72C268.62 366.92 268.06 368 265.68 368H226C225.018 368.104 224.027 367.909 223.156 367.442C222.286 366.975 221.576 366.256 221.12 365.38L176.34 283.24H176L132.4 365.38C131.999 366.162 131.392 366.819 130.645 367.281C129.898 367.742 129.038 367.991 128.16 368H90C87.82 368 87.4 366.92 88.7 364.72L151.26 259.68L91.66 154.62C90.36 152.88 90.8 152 92.96 152H132.72C133.573 151.939 134.425 152.123 135.176 152.531C135.927 152.938 136.546 153.552 136.96 154.3L178.96 235.46H179.28L221.06 154.3C221.472 153.555 222.088 152.944 222.835 152.536C223.583 152.129 224.431 151.943 225.28 152H261.44C263.84 152 264.26 153.1 262.74 155.28ZM359.74 372C336.54 372 318.68 365.42 304.82 352.28C290.96 339.14 284 319.72 284 294C284 270.627 291.453 251.427 306.36 236.4C313.988 228.505 323.159 222.265 333.302 218.067C343.445 213.869 354.344 211.804 365.32 212C370.233 211.913 375.137 212.437 379.92 213.56V145.88C379.884 145.626 379.907 145.368 379.987 145.125C380.068 144.882 380.203 144.66 380.383 144.478C380.563 144.296 380.783 144.158 381.026 144.075C381.268 143.992 381.526 143.967 381.78 144H418.34C419.36 144 419.88 144.62 419.88 145.88V335.38C419.88 343.38 423.34 350.2 423.88 356.04C423.99 356.618 423.895 357.217 423.61 357.732C423.325 358.247 422.868 358.646 422.32 358.86C404.38 367.62 380.86 372 359.74 372ZM380 341.02V244.28C378.7 242 371.82 240 364.78 240C358.953 239.849 353.166 241 347.841 243.371C342.516 245.741 337.788 249.27 334 253.7C324.776 264.504 319.799 278.296 320 292.5C320 310.02 326 322.02 333.82 330.36C337.516 334.599 342.069 338.006 347.178 340.357C352.287 342.708 357.836 343.95 363.46 344C370.92 344 378.22 342.88 380 341.02Z" fill="#FF61F6"/>
</svg>
