<svg width="512" height="512" viewBox="0 0 512 512" fill="none" xmlns="http://www.w3.org/2000/svg">
<g clip-path="url(#clip0_2_9)">
<path d="M256 20C386.339 20 492 125.661 492 256C492 386.339 386.339 492 256 492C125.661 492 20 386.339 20 256C20 125.661 125.661 20 256 20Z" stroke="white" stroke-width="40"/>
<path d="M380.895 157.189C380.895 142.733 369.163 131 354.706 131H206.581C192.125 131 180.392 142.733 180.392 157.189C180.392 171.645 192.125 183.378 206.581 183.378H291.538L138.7 336.217C128.433 346.483 128.433 363.034 138.7 373.3C148.966 383.567 165.517 383.567 175.783 373.3L328.622 220.462V305.419C328.622 319.875 340.355 331.608 354.811 331.608C369.267 331.608 381 319.875 381 305.419V157.189H380.895Z" fill="white"/>
</g>
<defs>
<clipPath id="clip0_2_9">
<rect width="512" height="512" fill="white"/>
</clipPath>
</defs>
</svg>
