<svg width="1071" height="1071" viewBox="0 0 1071 1071" fill="none" xmlns="http://www.w3.org/2000/svg">
<path d="M231.852 0H838.405C966.367 0 1070.26 103.89 1070.26 231.852V838.405C1070.26 966.367 966.367 1070.26 838.405 1070.26H231.852C103.89 1070.26 0 966.367 0 838.405V231.852C0 103.89 103.89 0 231.852 0Z" fill="#FFD02F"/>
<path d="M743.701 133.663H626.191L724.063 305.652L508.681 133.663H391.171L498.862 343.977L273.662 133.663H156.152L273.662 401.307L156.152 936.594H273.662L498.862 362.982L391.171 936.594H508.681L724.063 324.973L626.191 936.594H743.701L959.082 267.327L743.701 133.663Z" fill="#050038"/>
</svg>
