<svg width="358" height="358" viewBox="0 0 358 358" fill="none" xmlns="http://www.w3.org/2000/svg">
<g clip-path="url(#clip0_7_22)">
<path d="M272.695 22.8398H85.3037C50.8059 22.8398 22.8398 50.8059 22.8398 85.3037V272.695C22.8398 307.193 50.8059 335.159 85.3037 335.159H272.695C307.193 335.159 335.159 307.193 335.159 272.695V85.3037C335.159 50.8059 307.193 22.8398 272.695 22.8398Z" fill="white"/>
<path fill-rule="evenodd" clip-rule="evenodd" d="M315.653 -0.0854492H42.4033C31.1141 -0.0854595 20.2865 4.39522 12.2984 12.3725C4.31041 20.3498 -0.184863 31.1714 -0.200073 42.4605V315.308C-0.200073 326.495 4.33173 337.626 12.2172 345.544C20.1594 353.52 31.148 358.084 42.404 358.084H315.653C326.894 358.084 337.88 353.489 345.802 345.525C353.614 337.669 358.244 326.356 358.199 315.308V42.4605C358.184 31.1814 353.696 20.3686 345.721 12.393C337.745 4.41737 326.932 -0.070078 315.653 -0.0854492ZM154.368 257.89C154.371 261.668 152.817 265.314 150.137 267.963C148.803 269.28 147.222 270.321 145.485 271.026C143.747 271.731 141.888 272.087 140.013 272.072H80.2992C76.5477 272.058 72.9549 270.557 70.3075 267.899C67.6602 265.241 66.174 261.642 66.1746 257.89V80.1842C66.1744 76.4328 67.6606 72.8341 70.3079 70.1761C72.9552 67.5181 76.5478 66.0172 80.2992 66.0022H140.013C143.77 66.0177 147.368 67.5169 150.025 70.1732C152.681 72.8295 154.18 76.4277 154.195 80.1842L154.368 257.89ZM292.169 176.301C292.178 180.088 290.644 183.734 287.955 186.39C285.231 189.081 281.619 190.483 277.815 190.483H218.101C214.344 190.468 210.745 188.969 208.088 186.313C205.432 183.656 203.933 180.057 203.919 176.301V80.1842C203.933 76.4274 205.432 72.8285 208.088 70.1719C210.745 67.5154 214.344 66.0166 218.101 66.0022H277.815C281.566 66.018 285.158 67.5191 287.805 70.177C290.452 72.8349 291.938 76.4331 291.939 80.1842L292.169 176.301Z" fill="#0067DC"/>
</g>
<defs>
<clipPath id="clip0_7_22">
<rect width="358" height="358" fill="white"/>
</clipPath>
</defs>
</svg>
